<?xml version="1.0" encoding="utf-8"?>
<!-- Generator: Adobe Illustrator 24.0.1, SVG Export Plug-In . SVG Version: 6.00 Build 0)  -->
<svg version="1.1" id="Camada_1" xmlns="http://www.w3.org/2000/svg" xmlns:xlink="http://www.w3.org/1999/xlink" x="0px" y="0px"
	 viewBox="0 0 128 128" style="enable-background:new 0 0 128 128;" xml:space="preserve">
<style type="text/css">
	.st0{fill:#1F0740;}
	.st1{fill:#D490C5;}
</style>
<path class="st0" d="M6.5,6.5h115v115H6.5V6.5z"/>
<path class="st1" d="M0,0v128h128V0H0z M121.5,121.5H6.5V6.5h115V121.5z"/>
<path class="st1" d="M103.5,59.2c0,0-0.6-14.6-16.5-14.6c-16,0-17.3,22-17.3,22v4.7c0,0,2.8,18.3,16.3,18.3s14.8-2.6,14.8-2.6v-8.1
	c0,0-19.3,9.2-21.2-10h24v-9.7H103.5z M94.5,61.6h-15c0,0,0-8.3,7.5-9.2C95.2,52.4,94.5,61.6,94.5,61.6z M50.5,29.9H38.4v3.8
	l-16,54.9h9.4l4.4-16.1H53l4.5,16.1h10.3L50.5,29.9z M38.2,63.1l6.4-24.5L51,63.1H38.2z"/>
<image style="overflow:visible;" width="1200" height="1180" xlink:href="../../../../Ãrea de Trabalho/Adobe_Photoshop_CS6_icon.svg.png"  transform="matrix(0.1067 0 0 0.1085 0 0)">
</image>
</svg>
